<svg xmlns="http://www.w3.org/2000/svg" style="display: none;">
  <symbol id="icon-1" viewBox="0 0 24 24">
<path d="M1 12H19" stroke="#0F6491" stroke- stroke-linecap="round" stroke-linejoin="round"></path><path d="M1 6H19" stroke="#0F6491" stroke- stroke-linecap="round" stroke-linejoin="round"></path><path d="M1 18H19" stroke="#0F6491" stroke- stroke-linecap="round" stroke-linejoin="round"></path>
  </symbol>
  <symbol id="icon-10" viewBox="0 0 24 24">
<circle cx="12" cy="12" r="1.5" fill="#212B32"></circle><circle cx="12" cy="5" r="1.5" fill="#212B32"></circle><circle cx="12" cy="19" r="1.5" fill="#212B32"></circle>
  </symbol>
  <symbol id="icon-11" viewBox="0 0 21 22">
<path d="M7 1.83333V4.58333M14 1.83333V4.58333M3.0625 8.3325H17.9375M3.0625 7.79167V15.5833C3.0625 18.3333 4.375 20.1667 7.4375 20.1667H14.5625C17.625 20.1667 18.9375 18.3333 18.9375 15.5833V7.79167C18.9375 5.04167 17.625 3.20833 14.5625 3.20833H7.4375C4.375 3.20833 3.0625 5.04167 3.0625 7.79167Z" stroke="#0F6491" stroke- stroke-linecap="round" stroke-linejoin="round" stroke-miterlimit="10"></path>
  </symbol>
  <symbol id="icon-12" viewBox="0 0 21 21">
<path d="M18.5 4.5L9.75 1L1 4.5L9.75 8L18.5 4.5Z" stroke="#0F6491" stroke- stroke-linecap="round" stroke-linejoin="round"></path>
  </symbol>
  <symbol id="icon-13" viewBox="0 0 21 21">
<path d="M18.5 15C18.5 15.4641 18.3156 15.9092 17.9874 16.2374C17.6592 16.5656 17.2141 16.75 16.75 16.75H2.75C2.28587 16.75 1.84075 16.5656 1.51256 16.2374C1.18437 15.9092 1 15.4641 1 15V2.75C1 2.28587 1.18437 1.84075 1.51256 1.51256C1.84075 1.18437 2.28587 1 2.75 1H7.125L8.875 3.625H16.75C17.2141 3.625 17.6592 3.80937 17.9874 4.13756C18.3156 4.46575 18.5 4.91087 18.5 5.375V15Z" stroke="#0F6491" stroke- stroke-linecap="round" stroke-linejoin="round"></path>
  </symbol>
  <symbol id="icon-14" viewBox="0 0 21 21">
<path d="M1 15V1M6.5 15V6.5M12 15V12" stroke="#0F6491" stroke- stroke-linecap="round" stroke-linejoin="round"></path>
  </symbol>
  <symbol id="icon-15" viewBox="0 0 17 17">
<path d="M12.5 1.11658C13.7569 1.84229 14.8025 2.88368 15.5332 4.13766C16.2639 5.39164 16.6545 6.81472 16.6662 8.26603C16.6779 9.71733 16.3104 11.1465 15.6 12.4122C14.8896 13.6778 13.861 14.7359 12.616 15.4818C11.371 16.2278 9.95281 16.6356 8.50175 16.665C7.05069 16.6943 5.61713 16.3442 4.34296 15.6493C3.0688 14.9543 1.99823 13.9387 1.23722 12.7028C0.476219 11.467 0.0511744 10.0538 0.00416676 8.60324L0 8.33324L0.00416676 8.06324C0.050836 6.62407 0.469623 5.22155 1.2197 3.9924C1.96978 2.76326 3.02554 1.74945 4.28408 1.04981C5.54261 0.350171 6.96096 -0.0114257 8.40084 0.000275205C9.84072 0.0119761 11.253 0.396575 12.5 1.11658ZM11.4225 6.07741C11.279 5.93393 11.0881 5.84774 10.8856 5.835C10.683 5.82227 10.4828 5.88387 10.3225 6.00824L10.2442 6.07741L7.5 8.82074L6.4225 7.74408L6.34417 7.67491C6.18382 7.55062 5.98364 7.4891 5.78117 7.50187C5.5787 7.51465 5.38784 7.60084 5.24439 7.7443C5.10093 7.88775 5.01474 8.07861 5.00196 8.28108C4.98919 8.48355 5.05071 8.68373 5.175 8.84408L5.24417 8.92241L6.91083 10.5891L6.98917 10.6582C7.13531 10.7716 7.31503 10.8332 7.5 10.8332C7.68497 10.8332 7.86469 10.7716 8.01083 10.6582L8.08917 10.5891L11.4225 7.25574L11.4917 7.17741C11.616 7.01707 11.6776 6.81686 11.6649 6.61434C11.6522 6.41182 11.566 6.22091 11.4225 6.07741Z" fill="#00A488"></path>
  </symbol>
  <symbol id="icon-16" viewBox="0 0 24 24">
<circle cx="12" cy="12" r="1.5" fill="#212B32"></circle><circle cx="12" cy="5" r="1.5" fill="#212B32"></circle><circle cx="12" cy="19" r="1.5" fill="#212B32"></circle>
  </symbol>
  <symbol id="icon-17" viewBox="0 0 21 22">
<path d="M7 1.83333V4.58333M14 1.83333V4.58333M3.0625 8.3325H17.9375M3.0625 7.79167V15.5833C3.0625 18.3333 4.375 20.1667 7.4375 20.1667H14.5625C17.625 20.1667 18.9375 18.3333 18.9375 15.5833V7.79167C18.9375 5.04167 17.625 3.20833 14.5625 3.20833H7.4375C4.375 3.20833 3.0625 5.04167 3.0625 7.79167Z" stroke="#0F6491" stroke- stroke-linecap="round" stroke-linejoin="round" stroke-miterlimit="10"></path>
  </symbol>
  <symbol id="icon-18" viewBox="0 0 21 21">
<path d="M18.5 4.5L9.75 1L1 4.5L9.75 8L18.5 4.5Z" stroke="#0F6491" stroke- stroke-linecap="round" stroke-linejoin="round"></path>
  </symbol>
  <symbol id="icon-19" viewBox="0 0 21 21">
<path d="M18.5 15C18.5 15.4641 18.3156 15.9092 17.9874 16.2374C17.6592 16.5656 17.2141 16.75 16.75 16.75H2.75C2.28587 16.75 1.84075 16.5656 1.51256 16.2374C1.18437 15.9092 1 15.4641 1 15V2.75C1 2.28587 1.18437 1.84075 1.51256 1.51256C1.84075 1.18437 2.28587 1 2.75 1H7.125L8.875 3.625H16.75C17.2141 3.625 17.6592 3.80937 17.9874 4.13756C18.3156 4.46575 18.5 4.91087 18.5 5.375V15Z" stroke="#0F6491" stroke- stroke-linecap="round" stroke-linejoin="round"></path>
  </symbol>
  <symbol id="icon-2" viewBox="0 0 33 28">
<g clip-path="url(#clip0)"><path d="M24.9174 0H3.53292C1.67239 0 0.164134 1.55015 0.164134 3.46237C0.164134 5.37458 1.67239 6.92473 3.53292 6.92473H24.9174C26.7779 6.92473 28.2862 5.37458 28.2862 3.46237C28.2862 1.55015 26.7779 0 24.9174 0Z" fill="#22A3E6"></path><path d="M24.9174 10.5376H7.63405C5.77352 10.5376 4.26527 12.0878 4.26527 14C4.26527 15.9122 5.77352 17.4624 7.63405 17.4624H24.9174C26.7779 17.4624 28.2862 15.9122 28.2862 14C28.2862 12.0878 26.7779 10.5376 24.9174 10.5376Z" fill="#FFCC00"></path><path d="M29.0185 21.0753H7.63405C5.77352 21.0753 4.26527 22.6254 4.26527 24.5376C4.26527 26.4498 5.77352 28 7.63405 28H29.0185C30.8791 28 32.3873 26.4498 32.3873 24.5376C32.3873 22.6254 30.8791 21.0753 29.0185 21.0753Z" fill="#00A488"></path></g><defs><clipPath id="clip0"><rect fill="white"></rect></clipPath></defs>
  </symbol>
  <symbol id="icon-20" viewBox="0 0 21 21">
<path d="M1 15V1M6.5 15V6.5M12 15V12" stroke="#0F6491" stroke- stroke-linecap="round" stroke-linejoin="round"></path>
  </symbol>
  <symbol id="icon-21" viewBox="0 0 17 17">
<path d="M12.5 1.11658C13.7569 1.84229 14.8025 2.88368 15.5332 4.13766C16.2639 5.39164 16.6545 6.81472 16.6662 8.26603C16.6779 9.71733 16.3104 11.1465 15.6 12.4122C14.8896 13.6778 13.861 14.7359 12.616 15.4818C11.371 16.2278 9.95281 16.6356 8.50175 16.665C7.05069 16.6943 5.61713 16.3442 4.34296 15.6493C3.0688 14.9543 1.99823 13.9387 1.23722 12.7028C0.476219 11.467 0.0511744 10.0538 0.00416676 8.60324L0 8.33324L0.00416676 8.06324C0.050836 6.62407 0.469623 5.22155 1.2197 3.9924C1.96978 2.76326 3.02554 1.74945 4.28408 1.04981C5.54261 0.350171 6.96096 -0.0114257 8.40084 0.000275205C9.84072 0.0119761 11.253 0.396575 12.5 1.11658ZM11.4225 6.07741C11.279 5.93393 11.0881 5.84774 10.8856 5.835C10.683 5.82227 10.4828 5.88387 10.3225 6.00824L10.2442 6.07741L7.5 8.82074L6.4225 7.74408L6.34417 7.67491C6.18382 7.55062 5.98364 7.4891 5.78117 7.50187C5.5787 7.51465 5.38784 7.60084 5.24439 7.7443C5.10093 7.88775 5.01474 8.07861 5.00196 8.28108C4.98919 8.48355 5.05071 8.68373 5.175 8.84408L5.24417 8.92241L6.91083 10.5891L6.98917 10.6582C7.13531 10.7716 7.31503 10.8332 7.5 10.8332C7.68497 10.8332 7.86469 10.7716 8.01083 10.6582L8.08917 10.5891L11.4225 7.25574L11.4917 7.17741C11.616 7.01707 11.6776 6.81686 11.6649 6.61434C11.6522 6.41182 11.566 6.22091 11.4225 6.07741Z" fill="#C0C0C0"></path>
  </symbol>
  <symbol id="icon-22" viewBox="0 0 24 24">
<circle cx="12" cy="12" r="1.5" fill="#212B32"></circle><circle cx="12" cy="5" r="1.5" fill="#212B32"></circle><circle cx="12" cy="19" r="1.5" fill="#212B32"></circle>
  </symbol>
  <symbol id="icon-23" viewBox="0 0 21 22">
<path d="M7 1.83333V4.58333M14 1.83333V4.58333M3.0625 8.3325H17.9375M3.0625 7.79167V15.5833C3.0625 18.3333 4.375 20.1667 7.4375 20.1667H14.5625C17.625 20.1667 18.9375 18.3333 18.9375 15.5833V7.79167C18.9375 5.04167 17.625 3.20833 14.5625 3.20833H7.4375C4.375 3.20833 3.0625 5.04167 3.0625 7.79167Z" stroke="#0F6491" stroke- stroke-linecap="round" stroke-linejoin="round" stroke-miterlimit="10"></path>
  </symbol>
  <symbol id="icon-24" viewBox="0 0 21 21">
<path d="M18.5 4.5L9.75 1L1 4.5L9.75 8L18.5 4.5Z" stroke="#0F6491" stroke- stroke-linecap="round" stroke-linejoin="round"></path>
  </symbol>
  <symbol id="icon-25" viewBox="0 0 21 21">
<path d="M18.5 15C18.5 15.4641 18.3156 15.9092 17.9874 16.2374C17.6592 16.5656 17.2141 16.75 16.75 16.75H2.75C2.28587 16.75 1.84075 16.5656 1.51256 16.2374C1.18437 15.9092 1 15.4641 1 15V2.75C1 2.28587 1.18437 1.84075 1.51256 1.51256C1.84075 1.18437 2.28587 1 2.75 1H7.125L8.875 3.625H16.75C17.2141 3.625 17.6592 3.80937 17.9874 4.13756C18.3156 4.46575 18.5 4.91087 18.5 5.375V15Z" stroke="#0F6491" stroke- stroke-linecap="round" stroke-linejoin="round"></path>
  </symbol>
  <symbol id="icon-26" viewBox="0 0 21 21">
<path d="M1 15V1M6.5 15V6.5M12 15V12" stroke="#0F6491" stroke- stroke-linecap="round" stroke-linejoin="round"></path>
  </symbol>
  <symbol id="icon-27" viewBox="0 0 17 17">
<path d="M12.5 1.11658C13.7569 1.84229 14.8025 2.88368 15.5332 4.13766C16.2639 5.39164 16.6545 6.81472 16.6662 8.26603C16.6779 9.71733 16.3104 11.1465 15.6 12.4122C14.8896 13.6778 13.861 14.7359 12.616 15.4818C11.371 16.2278 9.95281 16.6356 8.50175 16.665C7.05069 16.6943 5.61713 16.3442 4.34296 15.6493C3.0688 14.9543 1.99823 13.9387 1.23722 12.7028C0.476219 11.467 0.0511744 10.0538 0.00416676 8.60324L0 8.33324L0.00416676 8.06324C0.050836 6.62407 0.469623 5.22155 1.2197 3.9924C1.96978 2.76326 3.02554 1.74945 4.28408 1.04981C5.54261 0.350171 6.96096 -0.0114257 8.40084 0.000275205C9.84072 0.0119761 11.253 0.396575 12.5 1.11658ZM11.4225 6.07741C11.279 5.93393 11.0881 5.84774 10.8856 5.835C10.683 5.82227 10.4828 5.88387 10.3225 6.00824L10.2442 6.07741L7.5 8.82074L6.4225 7.74408L6.34417 7.67491C6.18382 7.55062 5.98364 7.4891 5.78117 7.50187C5.5787 7.51465 5.38784 7.60084 5.24439 7.7443C5.10093 7.88775 5.01474 8.07861 5.00196 8.28108C4.98919 8.48355 5.05071 8.68373 5.175 8.84408L5.24417 8.92241L6.91083 10.5891L6.98917 10.6582C7.13531 10.7716 7.31503 10.8332 7.5 10.8332C7.68497 10.8332 7.86469 10.7716 8.01083 10.6582L8.08917 10.5891L11.4225 7.25574L11.4917 7.17741C11.616 7.01707 11.6776 6.81686 11.6649 6.61434C11.6522 6.41182 11.566 6.22091 11.4225 6.07741Z" fill="#C0C0C0"></path>
  </symbol>
  <symbol id="icon-28" viewBox="0 0 24 24">
<circle cx="12" cy="12" r="1.5" fill="#212B32"></circle><circle cx="12" cy="5" r="1.5" fill="#212B32"></circle><circle cx="12" cy="19" r="1.5" fill="#212B32"></circle>
  </symbol>
  <symbol id="icon-29" viewBox="0 0 21 22">
<path d="M7 1.83333V4.58333M14 1.83333V4.58333M3.0625 8.3325H17.9375M3.0625 7.79167V15.5833C3.0625 18.3333 4.375 20.1667 7.4375 20.1667H14.5625C17.625 20.1667 18.9375 18.3333 18.9375 15.5833V7.79167C18.9375 5.04167 17.625 3.20833 14.5625 3.20833H7.4375C4.375 3.20833 3.0625 5.04167 3.0625 7.79167Z" stroke="#0F6491" stroke- stroke-linecap="round" stroke-linejoin="round" stroke-miterlimit="10"></path>
  </symbol>
  <symbol id="icon-3" viewBox="0 0 24 24">
<path d="M12 2L15.09 8.26L22 9.27L17 14.14L18.18 21.02L12 17.77L5.82 21.02L7 14.14L2 9.27L8.91 8.26L12 2Z" fill="#22A3E6" stroke="#22A3E6" stroke- stroke-linecap="round" stroke-linejoin="round"></path>
  </symbol>
  <symbol id="icon-30" viewBox="0 0 21 21">
<path d="M18.5 4.5L9.75 1L1 4.5L9.75 8L18.5 4.5Z" stroke="#0F6491" stroke- stroke-linecap="round" stroke-linejoin="round"></path>
  </symbol>
  <symbol id="icon-31" viewBox="0 0 21 21">
<path d="M18.5 15C18.5 15.4641 18.3156 15.9092 17.9874 16.2374C17.6592 16.5656 17.2141 16.75 16.75 16.75H2.75C2.28587 16.75 1.84075 16.5656 1.51256 16.2374C1.18437 15.9092 1 15.4641 1 15V2.75C1 2.28587 1.18437 1.84075 1.51256 1.51256C1.84075 1.18437 2.28587 1 2.75 1H7.125L8.875 3.625H16.75C17.2141 3.625 17.6592 3.80937 17.9874 4.13756C18.3156 4.46575 18.5 4.91087 18.5 5.375V15Z" stroke="#0F6491" stroke- stroke-linecap="round" stroke-linejoin="round"></path>
  </symbol>
  <symbol id="icon-32" viewBox="0 0 21 21">
<path d="M1 15V1M6.5 15V6.5M12 15V12" stroke="#0F6491" stroke- stroke-linecap="round" stroke-linejoin="round"></path>
  </symbol>
  <symbol id="icon-33" viewBox="0 0 17 17">
<path d="M12.5 1.11658C13.7569 1.84229 14.8025 2.88368 15.5332 4.13766C16.2639 5.39164 16.6545 6.81472 16.6662 8.26603C16.6779 9.71733 16.3104 11.1465 15.6 12.4122C14.8896 13.6778 13.861 14.7359 12.616 15.4818C11.371 16.2278 9.95281 16.6356 8.50175 16.665C7.05069 16.6943 5.61713 16.3442 4.34296 15.6493C3.0688 14.9543 1.99823 13.9387 1.23722 12.7028C0.476219 11.467 0.0511744 10.0538 0.00416676 8.60324L0 8.33324L0.00416676 8.06324C0.050836 6.62407 0.469623 5.22155 1.2197 3.9924C1.96978 2.76326 3.02554 1.74945 4.28408 1.04981C5.54261 0.350171 6.96096 -0.0114257 8.40084 0.000275205C9.84072 0.0119761 11.253 0.396575 12.5 1.11658ZM11.4225 6.07741C11.279 5.93393 11.0881 5.84774 10.8856 5.835C10.683 5.82227 10.4828 5.88387 10.3225 6.00824L10.2442 6.07741L7.5 8.82074L6.4225 7.74408L6.34417 7.67491C6.18382 7.55062 5.98364 7.4891 5.78117 7.50187C5.5787 7.51465 5.38784 7.60084 5.24439 7.7443C5.10093 7.88775 5.01474 8.07861 5.00196 8.28108C4.98919 8.48355 5.05071 8.68373 5.175 8.84408L5.24417 8.92241L6.91083 10.5891L6.98917 10.6582C7.13531 10.7716 7.31503 10.8332 7.5 10.8332C7.68497 10.8332 7.86469 10.7716 8.01083 10.6582L8.08917 10.5891L11.4225 7.25574L11.4917 7.17741C11.616 7.01707 11.6776 6.81686 11.6649 6.61434C11.6522 6.41182 11.566 6.22091 11.4225 6.07741Z" fill="#C0C0C0"></path>
  </symbol>
  <symbol id="icon-4" viewBox="0 0 22 22">
<path d="M1 11H13.8333M1 11L6.5 16.5M1 11L6.5 5.5" stroke="#0F6491" stroke- stroke-linecap="round" stroke-linejoin="round"></path>
  </symbol>
  <symbol id="icon-5" viewBox="0 0 13 13">
<path d="M9.75 3.25L9.75 1M9.75 1L6.5 1M6.5 1L6.5 3.25M1 9.75L6.5 9.75M6.5 9.75L6.5 12M6.5 9.75L3.25 9.75" stroke="#0F6491" stroke- stroke-linecap="round" stroke-linejoin="round"></path>
  </symbol>
  <symbol id="icon-6" viewBox="0 0 24 24">
<path d="M1 11L7 17L13 11" stroke="currentColor" stroke- stroke-linecap="round" stroke-linejoin="round"></path>
  </symbol>
  <symbol id="icon-7" viewBox="0 0 24 24">
<path d="M6 6H14M6 10H12" stroke- stroke-linecap="round" stroke-linejoin="round"></path>
  </symbol>
  <symbol id="icon-8" viewBox="0 0 28 31">
<g id="Group 162975"><path d="M12.3635 6.73759H12.5159C12.5159 4.92134 14.0321 3.44308 15.8949 3.44308V3.29451C14.0321 3.29451 12.5159 1.81625 12.5159 0H12.3635C12.3635 1.81625 10.8473 3.29451 8.98438 3.29451V3.44308C10.8473 3.44308 12.3635 4.92134 12.3635 6.73759Z" fill="var(--fill-0, #00A488)" id="Vector"></path><path d="M5.65036 5.38981H5.40655C5.40655 8.29581 2.98061 10.661 0 10.661V10.8987C2.98061 10.8987 5.40655 13.264 5.40655 16.17H5.65036C5.65036 13.264 8.0763 10.8987 11.0569 10.8987V10.661C8.0763 10.661 5.65036 8.29581 5.65036 5.38981Z" fill="var(--fill-0, #FFCC00)" id="Vector_2"></path><path d="M27.1029 19.718V19.4864H27.0494C20.98 19.4864 16.0449 14.6748 16.0449 8.75735V8.70524H15.8073V8.75735C15.8073 14.6748 10.8722 19.4864 4.8028 19.4864H4.74935V19.718H4.8028C10.8722 19.718 15.8073 24.5296 15.8073 30.4471V30.4992H16.0449V30.4471C16.0449 24.5296 20.98 19.718 27.0494 19.718H27.1029Z" fill="var(--fill-0, #22A3E6)" id="Vector_3"></path></g>
  </symbol>
  <symbol id="icon-9" viewBox="0 0 17 17">
<path d="M12.5 1.11658C13.7569 1.84229 14.8025 2.88368 15.5332 4.13766C16.2639 5.39164 16.6545 6.81472 16.6662 8.26603C16.6779 9.71733 16.3104 11.1465 15.6 12.4122C14.8896 13.6778 13.861 14.7359 12.616 15.4818C11.371 16.2278 9.95281 16.6356 8.50175 16.665C7.05069 16.6943 5.61713 16.3442 4.34296 15.6493C3.0688 14.9543 1.99823 13.9387 1.23722 12.7028C0.476219 11.467 0.0511744 10.0538 0.00416676 8.60324L0 8.33324L0.00416676 8.06324C0.050836 6.62407 0.469623 5.22155 1.2197 3.9924C1.96978 2.76326 3.02554 1.74945 4.28408 1.04981C5.54261 0.350171 6.96096 -0.0114257 8.40084 0.000275205C9.84072 0.0119761 11.253 0.396575 12.5 1.11658ZM11.4225 6.07741C11.279 5.93393 11.0881 5.84774 10.8856 5.835C10.683 5.82227 10.4828 5.88387 10.3225 6.00824L10.2442 6.07741L7.5 8.82074L6.4225 7.74408L6.34417 7.67491C6.18382 7.55062 5.98364 7.4891 5.78117 7.50187C5.5787 7.51465 5.38784 7.60084 5.24439 7.7443C5.10093 7.88775 5.01474 8.07861 5.00196 8.28108C4.98919 8.48355 5.05071 8.68373 5.175 8.84408L5.24417 8.92241L6.91083 10.5891L6.98917 10.6582C7.13531 10.7716 7.31503 10.8332 7.5 10.8332C7.68497 10.8332 7.86469 10.7716 8.01083 10.6582L8.08917 10.5891L11.4225 7.25574L11.4917 7.17741C11.616 7.01707 11.6776 6.81686 11.6649 6.61434C11.6522 6.41182 11.566 6.22091 11.4225 6.07741Z" fill="#00A488"></path>
  </symbol>
</svg>