<svg fill="none" preserveAspectRatio="none" viewBox="0 0 9 9"><g id="Group"><path d="M8.10327 4.55367C8.10327 6.49701 6.49499 8.10529 4.55165 8.10529C2.6083 8.10529 1 6.49701 1 4.55367C1 2.61032 2.6083 1.00202 4.55165 1.00202C6.562 0.935009 8.10327 2.54331 8.10327 4.55367Z" fill="var(--fill-0, white)" id="Vector" stroke="var(--stroke-0, #212B32)" stroke-linecap="round" stroke-linejoin="round" stroke-miterlimit="10"></path><g id="Group_2"><path d="M4.55168 3.21389C4.35064 3.21389 4.28363 3.2809 4.28363 3.54895V3.88401H3.81454V3.54895C3.81454 3.01286 4.0826 2.67778 4.61869 2.67778C5.15479 2.67778 5.42283 3.01286 5.42283 3.54895C5.42283 4.01803 5.2888 4.35309 4.75271 4.88919C4.41765 5.22425 4.35063 5.35827 4.35063 5.55931V5.62633H5.35581V6.0954H3.81454V5.69332C3.81454 5.29125 3.94856 5.02322 4.35063 4.62115C4.7527 4.21907 4.88674 3.95102 4.88674 3.54895C4.88674 3.2809 4.75271 3.21389 4.55168 3.21389Z" fill="var(--fill-0, #212B32)" id="Vector_2"></path></g></g></svg>