<svg fill="none" preserveAspectRatio="none" viewBox="0 0 270 162"><g id="Group"><g id="Group_2"><path d="M268.645 1H1.46875V12.5261H268.645V1Z" id="Vector" stroke="var(--stroke-0, #212B32)" stroke-linecap="round" stroke-linejoin="round" stroke-miterlimit="10"></path><g id="Group_3"><path d="M264.691 9.10873C263.351 10.449 261.273 10.449 259.933 9.10873C258.593 7.76849 258.593 5.69112 259.933 4.35088C261.273 3.01064 263.351 3.01064 264.691 4.35088C266.031 5.69112 265.964 7.76849 264.691 9.10873Z" id="Vector_2" stroke="var(--stroke-0, #212B32)" stroke-linecap="round" stroke-linejoin="round" stroke-miterlimit="10"></path><path d="M263.552 5.49023L261.072 7.96968" id="Vector_3" stroke="var(--stroke-0, #212B32)" stroke-linecap="round" stroke-linejoin="round" stroke-miterlimit="10"></path><path d="M263.552 7.96968L261.072 5.49023" id="Vector_4" stroke="var(--stroke-0, #212B32)" stroke-linecap="round" stroke-linejoin="round" stroke-miterlimit="10"></path></g><g id="Group_4"><path d="M255.578 6.76271C255.578 8.63904 254.104 10.1133 252.228 10.1133C250.351 10.1133 248.877 8.63904 248.877 6.76271C248.877 4.88637 250.351 3.41211 252.228 3.41211C254.104 3.41211 255.578 4.88637 255.578 6.76271Z" id="Vector_5" stroke="var(--stroke-0, #212B32)" stroke-linecap="round" stroke-linejoin="round" stroke-miterlimit="10"></path><path d="M252.227 8.43714V5.01953H253.969V6.76184H250.484V8.43714H252.227Z" id="Vector_6" stroke="var(--stroke-0, #212B32)" stroke-linecap="round" stroke-linejoin="round" stroke-miterlimit="10"></path></g><g id="Group_5"><path d="M245.525 6.76271C245.525 8.63904 244.051 10.1133 242.175 10.1133C240.298 10.1133 238.824 8.63904 238.824 6.76271C238.824 4.88637 240.298 3.41211 242.175 3.41211C243.984 3.41211 245.525 4.88637 245.525 6.76271Z" id="Vector_7" stroke="var(--stroke-0, #212B32)" stroke-linecap="round" stroke-linejoin="round" stroke-miterlimit="10"></path><path d="M243.916 6.7627H240.432" id="Vector_8" stroke="var(--stroke-0, #212B32)" stroke-linecap="round" stroke-linejoin="round" stroke-miterlimit="10"></path></g></g><path d="M1 75.5173V15.6756H51.259" id="Vector_9" stroke="var(--stroke-0, #212B32)" stroke-linecap="round" stroke-linejoin="round" stroke-miterlimit="10"></path><path d="M268.578 109.895V15.6758H242.176" id="Vector_10" stroke="var(--stroke-0, #212B32)" stroke-linecap="round" stroke-linejoin="round" stroke-miterlimit="10"></path><path d="M268.578 116.261V137.034" id="Vector_11" stroke="var(--stroke-0, #212B32)" stroke-linecap="round" stroke-linejoin="round" stroke-miterlimit="10"></path><path d="M268.578 152.849V160.957" id="Vector_12" stroke="var(--stroke-0, #212B32)" stroke-linecap="round" stroke-linejoin="round" stroke-miterlimit="10"></path><path d="M1 81.0127V90.5284" id="Vector_13" stroke="var(--stroke-0, #212B32)" stroke-linecap="round" stroke-linejoin="round" stroke-miterlimit="10"></path><path d="M56.8203 15.6758H128.255" id="Vector_14" stroke="var(--stroke-0, #212B32)" stroke-linecap="round" stroke-linejoin="round" stroke-miterlimit="10"></path><path d="M151.039 15.6758H155.596" id="Vector_15" stroke="var(--stroke-0, #212B32)" stroke-linecap="round" stroke-linejoin="round" stroke-miterlimit="10"></path></g></svg>