<svg fill="none" preserveAspectRatio="none" viewBox="0 0 9 9"><g id="Group"><path d="M8.10327 4.55163C8.10327 6.49497 6.49497 8.10327 4.55163 8.10327C2.60828 8.10327 1 6.49497 1 4.55163C1 2.60828 2.60828 1 4.55163 1C6.49497 1 8.10327 2.60828 8.10327 4.55163Z" fill="var(--fill-0, white)" id="Vector" stroke="var(--stroke-0, #212B32)" stroke-linecap="round" stroke-linejoin="round" stroke-miterlimit="10"></path><g id="Group_2"><path d="M4.82022 3.61394C4.82022 3.27888 4.6862 3.21187 4.55218 3.21187C4.35114 3.21187 4.28413 3.27888 4.28413 3.54693V3.74798H3.74805V3.54693C3.74805 3.01083 4.01608 2.67578 4.55218 2.67578C5.08827 2.67578 5.35633 3.01083 5.35633 3.54693V3.61394C5.35633 3.949 5.2223 4.21705 4.95425 4.28406C5.2223 4.41809 5.35633 4.61913 5.35633 5.0212V5.28924C5.35633 5.82534 5.08827 6.16039 4.55218 6.16039C4.01608 6.16039 3.74805 5.82534 3.74805 5.28924V5.0212H4.28413V5.35626C4.28413 5.62431 4.41815 5.69132 4.55218 5.69132C4.75321 5.69132 4.82022 5.6243 4.82022 5.28924V5.0212C4.82022 4.68614 4.6862 4.61912 4.48516 4.61912H4.28413V4.15003H4.48516C4.6862 4.15003 4.82022 4.08302 4.82022 3.81497V3.61394Z" fill="var(--fill-0, #212B32)" id="Vector_2"></path></g></g></svg>