<svg fill="none" preserveAspectRatio="none" viewBox="0 0 28 23"><g id="Group"><path d="M10.21 22.4438H5.92125C4.58101 22.4438 3.37479 21.3716 3.17376 20.0314L2.10156 13.5312" id="Vector" stroke="var(--stroke-0, #212B32)" stroke-linecap="round" stroke-linejoin="round" stroke-miterlimit="10"></path><path d="M25.5549 13.5312L26.6271 20.0314C26.8281 21.3716 25.9569 22.4438 24.6167 22.4438H12.3535" id="Vector_2" stroke="var(--stroke-0, #212B32)" stroke-linecap="round" stroke-linejoin="round" stroke-miterlimit="10"></path><path d="M17.1113 4.61816H21.8022C23.1424 4.61816 24.3486 5.69036 24.5497 7.0306L25.1528 10.9843" id="Vector_3" stroke="var(--stroke-0, #212B32)" stroke-linecap="round" stroke-linejoin="round" stroke-miterlimit="10"></path><path d="M13.8281 4.61816H15.3024" id="Vector_4" stroke="var(--stroke-0, #212B32)" stroke-linecap="round" stroke-linejoin="round" stroke-miterlimit="10"></path><path d="M1.76592 11.7214L1.02879 7.0306C0.827752 5.69036 1.69891 4.61816 3.03915 4.61816H10.8125" id="Vector_5" stroke="var(--stroke-0, #212B32)" stroke-linecap="round" stroke-linejoin="round" stroke-miterlimit="10"></path><path d="M19.1229 1H17.3806C17.1126 1 16.7775 1.20104 16.7105 1.46909L16.1074 2.94334H5.85457C4.78238 2.94334 3.91123 3.61348 3.57617 4.55165" id="Vector_6" stroke="var(--stroke-0, #212B32)" stroke-linecap="round" stroke-linejoin="round" stroke-miterlimit="10"></path><path d="M26.9629 5.35578C26.9629 4.08255 25.9577 3.07737 24.7515 2.94334L24.1484 1.46909C24.0144 1.20104 23.7463 1 23.4783 1H20.2617" id="Vector_7" stroke="var(--stroke-0, #212B32)" stroke-linecap="round" stroke-linejoin="round" stroke-miterlimit="10"></path><path d="M24.617 22.4443C25.9572 22.4443 27.0294 21.3721 27.0294 20.0318V7.76866" id="Vector_8" stroke="var(--stroke-0, #212B32)" stroke-linecap="round" stroke-linejoin="round" stroke-miterlimit="10"></path></g></svg>