<svg class="block size-full" fill="none" preserveAspectRatio="none" viewBox="0 0 28 23"><g id="Group"><path d="M10.21 22.4439H5.92125C4.58101 22.4439 3.37479 21.3717 3.17376 20.0314L2.10156 13.5312" id="Vector" stroke="var(--stroke-0, #212B32)" stroke-linecap="round" stroke-linejoin="round" stroke-miterlimit="10"></path><path d="M25.5549 13.5312L26.6271 20.0314C26.8281 21.3717 25.9569 22.4439 24.6167 22.4439H12.3535" id="Vector_2" stroke="var(--stroke-0, #212B32)" stroke-linecap="round" stroke-linejoin="round" stroke-miterlimit="10"></path><path d="M17.1113 4.61816H21.8022C23.1424 4.61816 24.3486 5.69036 24.5497 7.0306L25.1528 10.9843" id="Vector_3" stroke="var(--stroke-0, #212B32)" stroke-linecap="round" stroke-linejoin="round" stroke-miterlimit="10"></path><path d="M13.8281 4.61816H15.3024" id="Vector_4" stroke="var(--stroke-0, #212B32)" stroke-linecap="round" stroke-linejoin="round" stroke-miterlimit="10"></path><path d="M1.76592 11.7214L1.02879 7.0306C0.827752 5.69036 1.69891 4.61816 3.03915 4.61816H10.8125" id="Vector_5" stroke="var(--stroke-0, #212B32)" stroke-linecap="round" stroke-linejoin="round" stroke-miterlimit="10"></path><path d="M19.1229 1H17.3806C17.1126 1 16.7775 1.20102 16.7105 1.46907L16.1074 2.94334H5.85457C4.78238 2.94334 3.91123 3.61346 3.57617 4.55163" id="Vector_6" stroke="var(--stroke-0, #212B32)" stroke-linecap="round" stroke-linejoin="round" stroke-miterlimit="10"></path><path d="M27.0299 5.35578C27.0299 4.08255 26.0247 3.07737 24.8185 2.94334L24.2154 1.46907C24.0814 1.20102 23.8133 1 23.5453 1H20.2617" id="Vector_7" stroke="var(--stroke-0, #212B32)" stroke-linecap="round" stroke-linejoin="round" stroke-miterlimit="10"></path><path d="M24.617 22.4443C25.9572 22.4443 27.0294 21.3721 27.0294 20.0319V7.76867" id="Vector_8" stroke="var(--stroke-0, #212B32)" stroke-linecap="round" stroke-linejoin="round" stroke-miterlimit="10"></path></g></svg>