<svg class="block size-full" fill="none" preserveAspectRatio="none" viewBox="0 0 28 24"><g id="Group"><path d="M24.55 22.5104H5.85365C4.51341 22.5104 3.3072 21.4382 3.10616 20.0979L1.02879 7.0306C0.827753 5.69036 1.69891 4.61816 3.03915 4.61816H21.7355C23.0757 4.61816 24.2819 5.69036 24.483 7.0306L26.5603 20.0979C26.8284 21.4382 25.8902 22.5104 24.55 22.5104Z" id="Vector" stroke="var(--stroke-0, #212B32)" stroke-linecap="round" stroke-linejoin="round" stroke-miterlimit="10"></path><path d="M24.5509 22.5108C25.8912 22.5108 26.9633 21.4386 26.9633 20.0984V5.35578C26.9633 4.08255 25.9582 3.07737 24.7519 2.94334L24.1488 1.46908C24.0148 1.20103 23.7468 1 23.4787 1H17.3806C17.1126 1 16.7775 1.20103 16.7105 1.46908L16.1074 2.94334H5.85458C4.78239 2.94334 3.91123 3.61346 3.57617 4.55162" id="Vector_2" stroke="var(--stroke-0, #212B32)" stroke-linecap="round" stroke-linejoin="round" stroke-miterlimit="10"></path></g></svg>