<svg class="block size-full" fill="none" preserveaspectratio="none" viewbox="0 0 191 190"><g id="Group"><g id="Group_2"><g id="Group_3"><path d="M98.8731 52.9815C98.0689 52.9815 96.5276 50.8371 95.6565 49.4299C95.6565 52.3114 95.6565 59.5487 96.9297 59.0796C98.471 58.4765 100.079 52.9815 98.8731 52.9815Z" fill="var(--fill-0, white)" id="Vector" stroke="var(--stroke-0, #212B32)" stroke-linecap="round" stroke-linejoin="round" stroke-miterlimit="10"></path></g><path d="M95.4551 72.9516C95.053 73.4877 94.4499 73.9568 93.7128 74.2919C91.7695 75.297 88.8209 75.7661 85.4033 75.6321C71.7329 75.096 50.9592 64.7092 59.1346 39.1106C64.1605 23.3628 86.8776 28.5897 92.7076 34.6208C94.718 36.6982 96.4603 41.121 97.5325 46.2809C97.9346 48.1572 97.1304 50.1676 97.3314 52.1779C97.5325 53.9872 98.7387 55.8636 98.8057 57.6729C98.8727 64.039 97.9346 69.9361 95.4551 72.9516Z" fill="var(--fill-0, white)" id="Vector_2" stroke="var(--stroke-0, #212B32)" stroke-linecap="round" stroke-linejoin="round" stroke-miterlimit="10"></path><path d="M93.6454 74.2912C91.7021 75.2964 88.7535 75.7655 85.3359 75.6315C86.2741 74.0232 87.6143 72.2139 87.6143 72.2139C87.6143 72.2139 92.1712 72.884 93.6454 74.2912Z" fill="var(--fill-0, #212B32)" id="Vector_3"></path><g id="Vector_4"><path d="M89.4911 72.1466C89.4911 72.1466 88.2849 87.6934 90.2952 91.178C92.3056 94.6626 72.6711 98.1472 64.7637 91.178C64.7637 91.178 69.2535 79.6519 68.8514 68.4609" fill="var(--fill-0, white)"></path><path d="M89.4911 72.1466C89.4911 72.1466 88.2849 87.6934 90.2952 91.178C92.3056 94.6626 72.6711 98.1472 64.7637 91.178C64.7637 91.178 69.2535 79.6519 68.8514 68.4609" stroke="var(--stroke-0, #212B32)" stroke-linecap="round" stroke-linejoin="round" stroke-miterlimit="10"></path></g><path d="M92.708 42.5277C92.708 42.5277 98.806 39.9142 96.7957 31.3367C93.8472 19.2075 87.347 26.7128 85.1356 24.9035C81.718 22.089 75.2178 19.5426 69.9909 23.9654C64.764 28.3881 61.5474 28.8572 54.8462 35.2234C48.145 41.5225 48.145 55.729 54.8462 61.291C61.5474 66.92 63.2897 72.8171 69.7229 74.6264C76.156 76.4357 85.7387 73.9563 87.615 69.1314C89.5584 64.2395 89.5584 60.8889 89.5584 60.8889C89.5584 60.8889 94.9864 51.0382 92.708 42.5277Z" fill="var(--fill-0, #212B32)" id="Vector_5"></path><g id="Vector_6"><path d="M92.2389 57.6058C92.2389 57.6058 90.8317 51.5747 89.9605 51.1056C89.0894 50.6365 86.4089 55.8635 86.4759 58.0079C86.5429 60.0852 89.4244 63.8379 90.7647 64.7091C92.1719 65.5802 92.641 63.1008 92.708 62.8327" fill="var(--fill-0, white)"></path><path d="M92.2389 57.6058C92.2389 57.6058 90.8317 51.5747 89.9605 51.1056C89.0894 50.6365 86.4089 55.8635 86.4759 58.0079C86.5429 60.0852 89.4244 63.8379 90.7647 64.7091C92.1719 65.5802 92.641 63.1008 92.708 62.8327" stroke="var(--stroke-0, #212B32)" stroke-linecap="round" stroke-linejoin="round" stroke-miterlimit="10"></path></g><path d="M90.229 54.4551C90.229 54.4551 89.1568 58.0067 90.7651 60.9552" id="Vector_7" stroke="var(--stroke-0, #212B32)" stroke-linecap="round" stroke-linejoin="round" stroke-miterlimit="10"></path><g id="Group_4"><path d="M91.7686 35.625C91.6346 37.5683 91.0985 39.8467 89.4902 41.053" id="Vector_8" opacity="0.2" stroke="var(--stroke-0, white)" stroke-linecap="round" stroke-linejoin="round" stroke-miterlimit="10"></path><path d="M81.0469 28.052C83.1913 27.1139 86.1398 25.9076 88.5522 26.5108C91.5007 27.2479 91.8358 31.4696 91.8358 33.9491" id="Vector_9" opacity="0.2" stroke="var(--stroke-0, white)" stroke-linecap="round" stroke-linejoin="round" stroke-miterlimit="10"></path><path d="M85.6033 46.3467C85.2682 47.4189 84.8662 48.424 84.3301 49.4292" id="Vector_10" opacity="0.2" stroke="var(--stroke-0, white)" stroke-linecap="round" stroke-linejoin="round" stroke-miterlimit="10"></path><path d="M75.2168 33.0117C77.8973 32.2745 81.1809 31.7384 83.5263 33.6148C86.5418 36.0942 86.7429 41.3211 86.0057 44.8058" id="Vector_11" opacity="0.2" stroke="var(--stroke-0, white)" stroke-linecap="round" stroke-linejoin="round" stroke-miterlimit="10"></path><path d="M77.8305 42.795C80.1089 47.0168 80.1089 55.6613 74.7479 57.7387" id="Vector_12" opacity="0.2" stroke="var(--stroke-0, white)" stroke-linecap="round" stroke-linejoin="round" stroke-miterlimit="10"></path><path d="M70.2578 37.9704C72.5362 36.5631 75.8198 39.9137 77.026 41.455" id="Vector_13" opacity="0.2" stroke="var(--stroke-0, white)" stroke-linecap="round" stroke-linejoin="round" stroke-miterlimit="10"></path><path d="M76.2229 24.9699C75.3517 23.9647 74.0785 23.3616 72.7383 23.7636" id="Vector_14" opacity="0.2" stroke="var(--stroke-0, white)" stroke-linecap="round" stroke-linejoin="round" stroke-miterlimit="10"></path><path d="M78.2324 28.8572C77.9643 27.9191 77.6292 26.9809 77.1602 26.1768" id="Vector_15" opacity="0.2" stroke="var(--stroke-0, white)" stroke-linecap="round" stroke-linejoin="round" stroke-miterlimit="10"></path><path d="M71.5307 33.7487C71.5307 33.7487 71.8657 26.8464 66.8398 28.7228" id="Vector_16" opacity="0.2" stroke="var(--stroke-0, white)" stroke-linecap="round" stroke-linejoin="round" stroke-miterlimit="10"></path><path d="M61.2122 33.8156C60.207 33.6145 59.1348 33.8826 58.2637 34.3517" id="Vector_17" opacity="0.2" stroke="var(--stroke-0, white)" stroke-linecap="round" stroke-linejoin="round" stroke-miterlimit="10"></path><path d="M65.4335 38.3055C64.8974 36.6972 63.8922 35.0889 62.418 34.2178" id="Vector_18" opacity="0.2" stroke="var(--stroke-0, white)" stroke-linecap="round" stroke-linejoin="round" stroke-miterlimit="10"></path><path d="M61.4121 61.625C62.1492 62.1611 62.9534 62.6302 63.8245 62.9652" id="Vector_19" opacity="0.2" stroke="var(--stroke-0, white)" stroke-linecap="round" stroke-linejoin="round" stroke-miterlimit="10"></path><path d="M58.464 45.1408C57.1238 49.4296 56.6547 57.203 60.2064 60.6876" id="Vector_20" opacity="0.2" stroke="var(--stroke-0, white)" stroke-linecap="round" stroke-linejoin="round" stroke-miterlimit="10"></path><path d="M65.4333 40.8522C62.5518 39.579 60.1393 41.1203 59.0001 43.8008" id="Vector_21" opacity="0.2" stroke="var(--stroke-0, white)" stroke-linecap="round" stroke-linejoin="round" stroke-miterlimit="10"></path></g></g><path d="M63.0215 85.7511L66.3051 76.3024C66.3051 76.3024 89.9603 73.2198 95.6563 81.0602C101.285 88.9006 63.0215 85.7511 63.0215 85.7511Z" fill="var(--fill-0, #A9D8F1)" id="Vector_22" stroke="var(--stroke-0, #212B32)" stroke-linecap="round" stroke-linejoin="round" stroke-miterlimit="10"></path><g id="Group_5"><g id="Vector_23"><path d="M20.6029 72.1475C20.6029 72.1475 17.9225 67.7917 18.1235 66.6525C18.3245 65.5133 17.6544 60.2864 18.1235 57.7399C18.5926 55.0594 20.6029 55.6625 20.6029 55.6625C20.6029 55.6625 21.4071 50.5696 23.5515 50.9047C23.5515 50.9047 23.8195 44.6726 24.6237 43.3323C25.3608 41.9921 25.7629 41.1879 25.7629 41.1879C25.7629 41.1879 27.3041 40.5178 27.3041 42.7962C27.3041 45.0746 27.3041 49.2294 27.3041 49.2294L28.9794 42.3942L31.4589 38.9766C31.4589 38.9766 33.1342 40.7859 31.7269 43.3323C30.6547 45.2087 31.7269 57.0028 31.7269 57.0028C34.1394 56.4667 34.8765 54.1883 34.8765 54.1883C34.8765 54.1883 35.7476 51.7758 37.959 51.1727C40.1704 50.5696 38.0931 53.2501 37.2889 57.0028C36.4848 60.8225 31.3249 69.1319 28.6444 70.8072" fill="var(--fill-0, white)"></path><path d="M20.6029 72.1475C20.6029 72.1475 17.9225 67.7917 18.1235 66.6525C18.3245 65.5133 17.6544 60.2864 18.1235 57.7399C18.5926 55.0594 20.6029 55.6625 20.6029 55.6625C20.6029 55.6625 21.4071 50.5696 23.5515 50.9047C23.5515 50.9047 23.8195 44.6726 24.6237 43.3323C25.3608 41.9921 25.7629 41.1879 25.7629 41.1879C25.7629 41.1879 27.3041 40.5178 27.3041 42.7962C27.3041 45.0746 27.3041 49.2294 27.3041 49.2294L28.9794 42.3942L31.4589 38.9766C31.4589 38.9766 33.1342 40.7859 31.7269 43.3323C30.6547 45.2087 31.7269 57.0028 31.7269 57.0028C34.1394 56.4667 34.8765 54.1883 34.8765 54.1883C34.8765 54.1883 35.7476 51.7758 37.959 51.1727C40.1704 50.5696 38.0931 53.2501 37.2889 57.0028C36.4848 60.8225 31.3249 69.1319 28.6444 70.8072" stroke="var(--stroke-0, #212B32)" stroke-linecap="round" stroke-linejoin="round" stroke-miterlimit="10"></path></g><g id="Vector_24"><path d="M30.0513 67.6572L23.4842 105.519L43.7218 93.6579L39.634 122.875C39.634 122.875 13.5664 134.937 7.66933 136.21C1.77228 137.484 0.365031 120.798 1.23619 116.375C2.10734 111.952 18.2572 78.6472 20.2676 69.2655" fill="var(--fill-0, white)"></path><path d="M30.0513 67.6572L23.4842 105.519L43.7218 93.6579L39.634 122.875C39.634 122.875 13.5664 134.937 7.66933 136.21C1.77228 137.484 0.365031 120.798 1.23619 116.375C2.10734 111.952 18.2572 78.6472 20.2676 69.2655" stroke="var(--stroke-0, #212B32)" stroke-linecap="round" stroke-linejoin="round" stroke-miterlimit="10"></path></g><path d="M8.00391 113.159C8.00391 113.159 12.2927 109.473 19.3289 107.128" id="Vector_25" stroke="var(--stroke-0, #212B32)" stroke-linecap="round" stroke-linejoin="round" stroke-miterlimit="10"></path><g id="Group_6"><path d="M50.9588 86.3535L50.0876 113.627L49.6856 125.757L29.85 130.715L24.5561 132.056C13.6331 124.684 15.2414 105.519 15.2414 105.519L20.5354 101.699L23.7519 102.369C23.819 102.369 43.8555 87.4927 50.9588 86.3535Z" fill="var(--fill-0, #A9D8F1)" id="Vector_26"></path><g id="Clip path group"><mask height="47" id="mask0_1_5710" maskunits="userSpaceOnUse" style="mask-type: luminance;" width="36" x="15" y="86"><g id="XMLID_00000070798349240439554730000010867003797462207109_"><path d="M50.9588 86.3535L50.0876 113.627L49.6856 125.757L29.85 130.715L24.5561 132.056C13.6331 124.684 15.2414 105.519 15.2414 105.519L20.5354 101.699L23.7519 102.369C23.819 102.369 43.8555 87.4927 50.9588 86.3535Z" fill="var(--fill-0, white)" id="Vector_27"></path></g></mask><g mask="url(#mask0_1_5710)"><path d="M50.0869 113.628L49.6848 125.757L29.8493 130.716C28.107 125.422 31.7256 126.896 31.7256 126.896C29.7823 124.014 29.8493 120.865 29.8493 120.865L33.4679 122.54C31.2565 116.978 35.0092 110.679 35.0092 110.679L35.6793 116.71C35.0092 110.679 42.1795 100.493 42.1795 100.493C42.1795 100.493 47.4064 104.715 50.0869 113.628Z" fill="var(--fill-0, #4C6272)" id="Vector_28" opacity="0.2"></path></g></g><path d="M50.9588 86.3535L50.0876 113.627L49.6856 125.757L29.85 130.715L24.5561 132.056C13.6331 124.684 15.2414 105.519 15.2414 105.519L20.5354 101.699L23.7519 102.369C23.819 102.369 43.8555 87.4927 50.9588 86.3535Z" id="Vector_29" stroke="var(--stroke-0, #212B32)" stroke-linecap="round" stroke-linejoin="round" stroke-miterlimit="10"></path></g><path d="M34.4064 113.829C34.4064 113.829 34.3394 119.458 37.0199 124.082" id="Vector_30" stroke="var(--stroke-0, #212B32)" stroke-linecap="round" stroke-linejoin="round" stroke-miterlimit="10"></path><path d="M29.918 122.607C29.918 122.607 34.2067 127.834 37.2223 128.907" id="Vector_31" stroke="var(--stroke-0, #212B32)" stroke-linecap="round" stroke-linejoin="round" stroke-miterlimit="10"></path><path d="M23.8197 102.37C23.8197 102.37 20.3351 109.674 22.3454 116.778" id="Vector_32" stroke="var(--stroke-0, #212B32)" stroke-linecap="round" stroke-linejoin="round" stroke-miterlimit="10"></path></g><g id="Group_7"><path d="M41.2418 95.2001C38.2263 104.046 37.2211 120.263 37.0201 135.541C36.752 154.506 37.7572 171.929 37.7572 171.929C53.572 198.801 89.2224 187.677 102.089 182.517C102.156 182.517 102.156 182.517 102.156 182.517C105.104 181.31 106.847 180.506 106.847 180.506C111.001 163.217 113.682 147.939 115.29 134.871C117.836 114.5 117.903 99.2879 117.434 89.7722C117.099 82.0658 116.362 78.0451 116.362 78.0451C116.362 78.0451 105.104 78.1791 91.7018 79.1173C84.4645 79.6534 76.6911 80.3905 69.7219 81.4627C64.562 82.2668 60.2732 83.272 56.7886 84.3442C54.5102 85.0143 50.8245 86.2876 49.1492 86.8907C48.2111 87.2257 46.4017 88.2309 46.4017 88.2309" fill="var(--fill-0, #A9D8F1)" id="XMLID_953_"></path><g id="Group_8"><path d="M91.701 79.0508C84.3966 82.2003 73.1386 86.087 68.9839 85.953C64.4941 85.819 59.0661 85.4839 56.7207 84.2777C60.2053 83.2055 64.4941 82.2003 69.654 81.3962C76.6903 80.324 84.5307 79.5869 91.701 79.0508Z" fill="var(--fill-0, #4C6272)" id="Vector_33" opacity="0.2"></path><path d="M102.089 182.517C89.2224 187.677 53.572 198.801 37.7572 171.929C37.7572 171.929 36.752 154.439 37.0201 135.542C42.113 145.996 58.866 152.764 58.866 152.764C58.866 152.764 56.9896 132.258 58.866 127.366C60.7423 122.407 65.9692 93.6592 65.9692 93.6592C65.9692 93.6592 67.9796 99.4222 64.763 115.17C61.6134 130.918 63.0207 152.764 63.0207 152.764C70.7941 154.439 89.4904 152.764 89.4904 152.764C76.021 171.862 46.4017 175.079 46.4017 175.079C66.9074 192.234 100.413 182.986 102.089 182.517Z" fill="var(--fill-0, #4C6272)" id="Vector_34" opacity="0.2"></path><path d="M115.289 134.737C114.753 130.315 114.217 126.964 114.217 126.964C112.877 137.552 98.9383 140.902 102.222 137.351C105.505 133.799 111.336 122.608 111.336 122.608C108.32 113.83 113.212 88.1641 113.212 88.1641C113.212 88.1641 114.887 88.6332 117.501 89.6383C117.903 99.221 117.836 114.366 115.289 134.737Z" fill="var(--fill-0, #4C6272)" id="Vector_35" opacity="0.2"></path></g><path d="M106.847 180.44C111.002 163.151 113.682 147.872 115.291 134.805C117.837 114.433 117.904 99.2213 117.435 89.7056C117.1 81.9992 116.363 77.9785 116.363 77.9785C116.363 77.9785 105.105 78.1125 91.7024 79.0507C84.4651 79.5868 76.6917 80.3239 69.7225 81.3961C64.5626 82.2003 60.2738 83.2055 56.7892 84.2777C54.5108 84.9478 50.8251 86.221 49.1498 86.8241C48.2117 87.1592 46.4023 88.1643 46.4023 88.1643" id="XMLID_955_" stroke="var(--stroke-0, #212B32)" stroke-linecap="round" stroke-linejoin="round" stroke-miterlimit="10"></path><path d="M41.2418 95.2012C38.2263 104.047 37.2211 120.264 37.0201 135.542C36.752 154.507 37.7572 171.93 37.7572 171.93" id="XMLID_954_" stroke="var(--stroke-0, #212B32)" stroke-linecap="round" stroke-linejoin="round" stroke-miterlimit="10"></path><path d="M93.3779 78.917C93.3779 78.917 68.8515 88.7007 63.0215 88.1646" id="Vector_36" stroke="var(--stroke-0, #212B32)" stroke-linecap="round" stroke-linejoin="round" stroke-miterlimit="10"></path><path d="M66.1704 92.1846C66.1704 92.1846 59.0671 140.366 61.4126 156.784C61.4126 156.784 59.4692 172.599 57.2578 182.45" id="Vector_37" stroke="var(--stroke-0, #212B32)" stroke-linecap="round" stroke-linejoin="round" stroke-miterlimit="10"></path><path d="M43.7221 148.609C43.7221 148.609 42.65 156.048 61.4803 156.852C80.3107 157.656 90.8315 149.95 90.8315 149.95" id="Vector_38" stroke="var(--stroke-0, #212B32)" stroke-linecap="round" stroke-linejoin="round" stroke-miterlimit="10"></path></g><g id="Group_9"><g id="Group_10"><g id="Vector_39"><path d="M170.038 34.621C169.569 30.6673 169.234 20.4144 170.038 19.7443C170.843 19.0742 175.265 12.239 175.265 12.239C176.203 12.306 175.935 13.7802 175.935 13.7802C175.935 13.7802 181.631 3.92948 182.905 1.98613C184.245 -0.0242253 185.116 1.31602 184.848 3.52741C184.848 3.52741 186.389 0.310834 187.126 1.31601C188.534 3.25936 185.317 12.9761 185.317 12.9761C185.317 12.9761 188.199 12.7751 188.065 16.0586C188.065 16.0586 189.807 15.5225 189.941 18.4041C190.008 20.2804 189.137 25.9094 187.193 24.7032C187.193 24.7032 185.987 32.6776 178.549 36.4973" fill="var(--fill-0, white)"></path><path d="M170.038 34.621C169.569 30.6673 169.234 20.4144 170.038 19.7443C170.843 19.0742 175.265 12.239 175.265 12.239C176.203 12.306 175.935 13.7802 175.935 13.7802C175.935 13.7802 181.631 3.92948 182.905 1.98613C184.245 -0.0242253 185.116 1.31602 184.848 3.52741C184.848 3.52741 186.389 0.310834 187.126 1.31601C188.534 3.25936 185.317 12.9761 185.317 12.9761C185.317 12.9761 188.199 12.7751 188.065 16.0586C188.065 16.0586 189.807 15.5225 189.941 18.4041C190.008 20.2804 189.137 25.9094 187.193 24.7032C187.193 24.7032 185.987 32.6776 178.549 36.4973" stroke="var(--stroke-0, #212B32)" stroke-linecap="round" stroke-linejoin="round" stroke-miterlimit="10"></path></g><path d="M175.868 13.7803C175.868 13.7803 174.058 16.9968 172.785 19.2753C171.512 21.5537 171.512 22.7599 171.512 22.7599" id="Vector_40" stroke="var(--stroke-0, #212B32)" stroke-linecap="round" stroke-linejoin="round" stroke-miterlimit="10"></path><path d="M184.849 3.52734C184.849 3.52734 180.627 12.5069 179.756 13.7802" id="Vector_41" stroke="var(--stroke-0, #212B32)" stroke-linecap="round" stroke-linejoin="round" stroke-miterlimit="10"></path><path d="M185.318 12.9092C185.318 12.9092 183.643 14.5845 183.442 14.8525" id="Vector_42" stroke="var(--stroke-0, #212B32)" stroke-linecap="round" stroke-linejoin="round" stroke-miterlimit="10"></path><path d="M188.065 15.9912C188.065 15.9912 187.395 16.5273 186.322 17.3985" id="Vector_43" stroke="var(--stroke-0, #212B32)" stroke-linecap="round" stroke-linejoin="round" stroke-miterlimit="10"></path><path d="M187.193 24.6356C187.193 24.6356 187.596 22.0892 187.596 21.8881C187.596 21.6871 188.735 20.883 189.137 19.6767" id="Vector_44" stroke="var(--stroke-0, #212B32)" stroke-linecap="round" stroke-linejoin="round" stroke-miterlimit="10"></path></g><g id="Vector_45"><path d="M170.44 31.2695C170.44 31.2695 169.301 35.0222 161.394 49.4298C153.486 63.7703 150.337 71.7447 150.337 71.7447L135.326 75.8325L139.213 99.8227C139.213 99.8227 165.012 86.2193 165.884 84.343C166.755 82.4666 173.121 63.1002 175.265 54.2546C177.477 45.4761 180.157 34.6871 180.157 34.6871" fill="var(--fill-0, white)"></path><path d="M170.44 31.2695C170.44 31.2695 169.301 35.0222 161.394 49.4298C153.486 63.7703 150.337 71.7447 150.337 71.7447L135.326 75.8325L139.213 99.8227C139.213 99.8227 165.012 86.2193 165.884 84.343C166.755 82.4666 173.121 63.1002 175.265 54.2546C177.477 45.4761 180.157 34.6871 180.157 34.6871" stroke="var(--stroke-0, #212B32)" stroke-linecap="round" stroke-linejoin="round" stroke-miterlimit="10"></path></g><g id="Group_11"><path d="M148.124 89.9059C146.784 95.3338 144.305 98.2824 142.16 99.8236C140.15 101.298 138.475 101.566 138.475 101.566L116.361 113.829C116.361 113.829 111.67 103.174 112.809 90.71C113.211 86.5553 114.216 82.1995 116.361 77.9777L137.604 74.2251L139.547 72.2817H143.032C143.099 72.2147 150.738 79.318 148.124 89.9059Z" fill="var(--fill-0, #A9D8F1)" id="Vector_46"></path><g id="Clip path group_2"><mask height="42" id="mask1_1_5710" maskunits="userSpaceOnUse" style="mask-type: luminance;" width="37" x="112" y="72"><g id="XMLID_00000136376361487702307570000003462094699453726640_"><path d="M148.124 89.9059C146.784 95.3338 144.305 98.2824 142.16 99.8236C140.15 101.298 138.475 101.566 138.475 101.566L116.361 113.829C116.361 113.829 111.67 103.174 112.809 90.71C113.211 86.5553 114.216 82.1995 116.361 77.9777L137.604 74.2251L139.547 72.2817H143.032C143.099 72.2147 150.738 79.318 148.124 89.9059Z" fill="var(--fill-0, white)" id="Vector_47"></path></g></mask><g mask="url(#mask1_1_5710)"><path d="M142.16 99.8236C140.15 101.298 138.475 101.566 138.475 101.566L116.361 113.829C116.361 113.829 111.67 103.174 112.809 90.71C116.964 91.1791 115.624 105.252 117.098 105.386C118.706 105.587 125.608 95.1998 127.016 95.1998C129.294 95.1998 127.083 105.051 127.016 105.386C127.351 105.252 137.202 101.566 140.016 96.205C141.423 93.5245 142.495 95.8029 142.16 99.8236Z" fill="var(--fill-0, #4C6272)" id="Vector_48" opacity="0.2"></path></g></g><path d="M148.124 89.9059C146.784 95.3338 144.305 98.2824 142.16 99.8236C140.15 101.298 138.475 101.566 138.475 101.566L116.361 113.829C116.361 113.829 111.67 103.174 112.809 90.71C113.211 86.5553 114.216 82.1995 116.361 77.9777L137.604 74.2251L139.547 72.2817H143.032C143.099 72.2147 150.738 79.318 148.124 89.9059Z" id="Vector_49" stroke="var(--stroke-0, #212B32)" stroke-linecap="round" stroke-linejoin="round" stroke-miterlimit="10"></path></g><path d="M137.605 74.2256C137.605 74.2256 143.301 79.5865 142.296 88.6332" id="Vector_50" stroke="var(--stroke-0, #212B32)" stroke-linecap="round" stroke-linejoin="round" stroke-miterlimit="10"></path><path d="M124.805 99.8232C124.805 99.8232 118.305 108.334 116.362 113.829C116.362 113.829 111.001 131.453 103.562 136.278" id="Vector_51" stroke="var(--stroke-0, #212B32)" stroke-linecap="round" stroke-linejoin="round" stroke-miterlimit="10"></path><path d="M150.27 71.6783C150.27 71.6783 153.687 70.6731 155.563 72.1474" id="Vector_52" stroke="var(--stroke-0, #212B32)" stroke-linecap="round" stroke-linejoin="round" stroke-miterlimit="10"></path></g></g></svg>