<svg class="block size-full" fill="none" preserveAspectRatio="none" viewBox="0 0 28 31"><g id="Group 162975"><path d="M12.3635 6.73759H12.5159C12.5159 4.92134 14.0321 3.44308 15.8949 3.44308V3.29451C14.0321 3.29451 12.5159 1.81625 12.5159 0H12.3635C12.3635 1.81625 10.8473 3.29451 8.98438 3.29451V3.44308C10.8473 3.44308 12.3635 4.92134 12.3635 6.73759Z" fill="var(--fill-0, #00A488)" id="Vector"></path><path d="M5.65036 5.38981H5.40655C5.40655 8.29581 2.98061 10.661 0 10.661V10.8987C2.98061 10.8987 5.40655 13.264 5.40655 16.17H5.65036C5.65036 13.264 8.0763 10.8987 11.0569 10.8987V10.661C8.0763 10.661 5.65036 8.29581 5.65036 5.38981Z" fill="var(--fill-0, #FFCC00)" id="Vector_2"></path><path d="M27.1029 19.718V19.4864H27.0494C20.98 19.4864 16.0449 14.6748 16.0449 8.75735V8.70524H15.8073V8.75735C15.8073 14.6748 10.8722 19.4864 4.8028 19.4864H4.74935V19.718H4.8028C10.8722 19.718 15.8073 24.5296 15.8073 30.4471V30.4992H16.0449V30.4471C16.0449 24.5296 20.98 19.718 27.0494 19.718H27.1029Z" fill="var(--fill-0, #22A3E6)" id="Vector_3"></path></g></svg>