<svg class="block size-full" fill="none" preserveAspectRatio="none" viewBox="0 0 291 264"><g id="Group"><path d="M69.0095 254.012C85.2264 270.296 123.892 263.26 140.444 252.27C194.188 216.552 288.407 157.046 290.685 74.1519C291.623 38.9036 260.195 21.2125 247.06 16.1196C215.565 3.78935 181.322 0.773815 147.547 0.103695C112.299 -0.566424 74.5715 1.57796 43.2769 19.5372C31.4158 26.3724 20.2918 34.9499 12.8535 46.543C5.28112 58.3371 1.05937 72.2085 0.188215 86.147C-1.21904 108.663 5.41515 130.978 15.0649 151.35C24.7146 171.721 37.3798 190.485 49.0399 209.784C56.5453 222.382 55.3391 240.275 69.0095 254.012Z" fill="var(--fill-0, #A9D8F1)" id="Vector"></path><path d="M69.0095 254.012C85.2264 270.296 123.892 263.26 140.444 252.27C194.188 216.552 288.407 157.046 290.685 74.1519C291.623 38.9036 260.195 21.2125 247.06 16.1196C215.565 3.78935 181.322 0.773815 147.547 0.103695C112.299 -0.566424 74.5715 1.57796 43.2769 19.5372C31.4158 26.3724 20.2918 34.9499 12.8535 46.543C5.28112 58.3371 1.05937 72.2085 0.188215 86.147C-1.21904 108.663 5.41515 130.978 15.0649 151.35C24.7146 171.721 37.3798 190.485 49.0399 209.784C56.5453 222.382 55.3391 240.275 69.0095 254.012Z" fill="var(--fill-0, white)" id="Vector_2" opacity="0.7"></path></g></svg>