<svg class="h-7 w-[32.516px]" fill="none" viewBox="0 0 33 28"><g clip-path="url(#clip0)"><path d="M24.9174 0H3.53292C1.67239 0 0.164134 1.55015 0.164134 3.46237C0.164134 5.37458 1.67239 6.92473 3.53292 6.92473H24.9174C26.7779 6.92473 28.2862 5.37458 28.2862 3.46237C28.2862 1.55015 26.7779 0 24.9174 0Z" fill="#22A3E6"></path><path d="M24.9174 10.5376H7.63405C5.77352 10.5376 4.26527 12.0878 4.26527 14C4.26527 15.9122 5.77352 17.4624 7.63405 17.4624H24.9174C26.7779 17.4624 28.2862 15.9122 28.2862 14C28.2862 12.0878 26.7779 10.5376 24.9174 10.5376Z" fill="#FFCC00"></path><path d="M29.0185 21.0753H7.63405C5.77352 21.0753 4.26527 22.6254 4.26527 24.5376C4.26527 26.4498 5.77352 28 7.63405 28H29.0185C30.8791 28 32.3873 26.4498 32.3873 24.5376C32.3873 22.6254 30.8791 21.0753 29.0185 21.0753Z" fill="#00A488"></path></g><defs><clipPath id="clip0"><rect fill="white" height="28" width="32.5161"></rect></clipPath></defs></svg>