<svg class="block size-full" fill="none" preserveAspectRatio="none" viewBox="0 0 28 24"><g id="Group"><path d="M2.43604 15.9432L1.02879 7.0306C0.827753 5.69036 1.69891 4.61816 3.03915 4.61816H6.1217" id="Vector" stroke="var(--stroke-0, #212B32)" stroke-linecap="round" stroke-linejoin="round" stroke-miterlimit="10"></path><path d="M16.5756 22.4438H5.92068C4.58044 22.4438 3.37423 21.3716 3.17319 20.0314L2.83813 17.954" id="Vector_2" stroke="var(--stroke-0, #212B32)" stroke-linecap="round" stroke-linejoin="round" stroke-miterlimit="10"></path><path d="M21.6682 22.4434H18.1836" id="Vector_3" stroke="var(--stroke-0, #212B32)" stroke-linecap="round" stroke-linejoin="round" stroke-miterlimit="10"></path><path d="M8.86914 4.61816H21.8024C23.1427 4.61816 24.3489 5.69036 24.5499 7.0306L26.6273 20.0979C26.8283 21.4382 25.9572 22.5104 24.6169 22.5104" id="Vector_4" stroke="var(--stroke-0, #212B32)" stroke-linecap="round" stroke-linejoin="round" stroke-miterlimit="10"></path><path d="M11.885 2.94336H5.92098C4.84879 2.94336 3.97764 3.6135 3.64258 4.55166" id="Vector_5" stroke="var(--stroke-0, #212B32)" stroke-linecap="round" stroke-linejoin="round" stroke-miterlimit="10"></path><path d="M27.0289 13.5312V5.35578C27.0289 4.08255 26.0237 3.07737 24.8175 2.94334L24.2144 1.46909C24.0803 1.20104 23.8123 1 23.5442 1H17.4462C17.1781 1 16.843 1.20104 16.776 1.46909L16.1729 2.94334H13.8945" id="Vector_6" stroke="var(--stroke-0, #212B32)" stroke-linecap="round" stroke-linejoin="round" stroke-miterlimit="10"></path><path d="M24.617 22.4441C25.9572 22.4441 27.0294 21.3719 27.0294 20.0317V15.1398" id="Vector_7" stroke="var(--stroke-0, #212B32)" stroke-linecap="round" stroke-linejoin="round" stroke-miterlimit="10"></path></g></svg>