<svg fill="none" preserveAspectRatio="none" viewBox="0 0 28 24"><g id="Group"><path d="M2.43604 15.9432L1.02879 7.0306C0.827753 5.69036 1.69891 4.61816 3.03915 4.61816H6.1217" id="Vector" stroke="var(--stroke-0, #212B32)" stroke-linecap="round" stroke-linejoin="round" stroke-miterlimit="10"></path><path d="M16.5756 22.4438H5.92068C4.58044 22.4438 3.37422 21.3716 3.17319 20.0314L2.83813 17.954" id="Vector_2" stroke="var(--stroke-0, #212B32)" stroke-linecap="round" stroke-linejoin="round" stroke-miterlimit="10"></path><path d="M21.6688 22.4434H18.1172" id="Vector_3" stroke="var(--stroke-0, #212B32)" stroke-linecap="round" stroke-linejoin="round" stroke-miterlimit="10"></path><path d="M8.80273 4.61816H21.7361C23.0763 4.61816 24.2825 5.69036 24.4835 7.0306L26.5609 20.0979C26.7619 21.4382 25.8908 22.5103 24.5505 22.5103" id="Vector_4" stroke="var(--stroke-0, #212B32)" stroke-linecap="round" stroke-linejoin="round" stroke-miterlimit="10"></path><path d="M11.885 2.94336H5.92098C4.84879 2.94336 3.97764 3.61347 3.64258 4.55164" id="Vector_5" stroke="var(--stroke-0, #212B32)" stroke-linecap="round" stroke-linejoin="round" stroke-miterlimit="10"></path><path d="M26.9624 13.5312V5.35577C26.9624 4.08255 25.9573 3.07736 24.751 2.94334L24.1479 1.46907C24.0139 1.20102 23.7458 0.999996 23.4778 0.999996H17.3797C17.1117 0.999996 16.7766 1.20102 16.7096 1.46907L16.1065 2.94334H13.8281" id="Vector_6" stroke="var(--stroke-0, #212B32)" stroke-linecap="round" stroke-linejoin="round" stroke-miterlimit="10"></path><path d="M24.617 22.4435C25.9572 22.4435 27.0294 21.3713 27.0294 20.031V15.0721" id="Vector_7" stroke="var(--stroke-0, #212B32)" stroke-linecap="round" stroke-linejoin="round" stroke-miterlimit="10"></path></g></svg>